<?xml version="1.0" standalone="no"?>
<!DOCTYPE svg PUBLIC "-//W3C//DTD SVG 20010904//EN"
 "http://www.w3.org/TR/2001/REC-SVG-20010904/DTD/svg10.dtd">
<svg version="1.0" xmlns="http://www.w3.org/2000/svg"
 width="500.000000pt" height="500.000000pt" viewBox="0 0 500.000000 500.000000"
 preserveAspectRatio="xMidYMid meet">
<metadata>
Created by potrace 1.14, written by Peter Selinger 2001-2017
</metadata>
<g transform="translate(0.000000,500.000000) scale(0.100000,-0.100000)"
fill="#000000" stroke="none">
<path d="M1292 3939 c-351 -59 -595 -327 -552 -606 46 -295 378 -507 765 -490
392 18 675 250 675 554 0 259 -241 489 -570 542 -76 13 -242 12 -318 0z"/>
<path d="M550 2817 c-264 -207 -470 -621 -470 -944 0 -259 127 -468 351 -577
159 -77 306 -105 539 -106 227 0 458 34 783 116 221 55 434 122 1082 339 649
217 877 287 1177 360 305 74 644 125 837 125 l75 0 -29 30 c-41 43 -140 105
-214 135 -309 126 -750 149 -1766 94 -494 -26 -1080 -35 -1285 -20 -349 27
-573 80 -748 177 -94 52 -201 162 -241 247 -18 37 -33 67 -34 67 -1 0 -27 -19
-57 -43z"/>
</g>
</svg>
